<svg xmlns="http://www.w3.org/2000/svg" viewBox="0 0 1200 800">
  <defs>
    <radialGradient id="g" cx="50%" cy="45%" r="70%">
      <stop offset="0" stop-color="#3b82f6" stop-opacity=".35"/>
      <stop offset=".45" stop-color="#8b5cf6" stop-opacity=".18"/>
      <stop offset="1" stop-color="#020617" stop-opacity="0"/>
    </radialGradient>
    <pattern id="p" width="48" height="48" patternUnits="userSpaceOnUse">
      <path d="M48 0H0V48" fill="none" stroke="#60a5fa" stroke-opacity=".10"/>
    </pattern>
  </defs>
  <rect width="1200" height="800" fill="#020617"/>
  <rect width="1200" height="800" fill="url(#g)"/>
  <rect width="1200" height="800" fill="url(#p)"/>
  <g stroke="#a78bfa" stroke-opacity=".18">
    <path d="M90 720 C240 560, 300 630, 520 520 S 920 360, 1110 220"/>
    <path d="M40 210 C250 280, 360 160, 520 240 S 810 470, 1160 520"/>
    <path d="M180 100 C260 220, 420 140, 520 190 S 720 360, 980 320"/>
  </g>
  <g fill="#93c5fd" fill-opacity=".7">
    <circle cx="90" cy="720" r="3"/><circle cx="520" cy="520" r="3"/><circle cx="1110" cy="220" r="3"/>
    <circle cx="40" cy="210" r="3"/><circle cx="520" cy="240" r="3"/><circle cx="1160" cy="520" r="3"/>
    <circle cx="180" cy="100" r="3"/><circle cx="520" cy="190" r="3"/><circle cx="980" cy="320" r="3"/>
  </g>
</svg>
